PathFileType	4	(X/Y/Z)	T1_P1_NoVision_Movement_0_0-662.trc
DataRate	CameraRate	NumFrames	NumMarkers	Units	OrigDataRate	OrigDataStartFrame	OrigNumFrames
60	60	4	27	m	60	248	662
Frame#	Time	RHip			RKnee			RAnkle			RBigToe			RSmallToe			RHeel			LHip			LKnee			LAnkle			LBigToe			LSmallToe			LHeel			Neck			Head			Nose			RShoulder			RElbow			RWrist			RThumb			RIndex			RPinky			LShoulder			LElbow			LWrist			LThumb			LIndex			LPinky		
		X1	Y1	Z1	X2	Y2	Z2	X3	Y3	Z3	X4	Y4	Z4	X5	Y5	Z5	X6	Y6	Z6	X7	Y7	Z7	X8	Y8	Z8	X9	Y9	Z9	X10	Y10	Z10	X11	Y11	Z11	X12	Y12	Z12	X13	Y13	Z13	X14	Y14	Z14	X15	Y15	Z15	X16	Y16	Z16	X17	Y17	Z17	X18	Y18	Z18	X19	Y19	Z19	X20	Y20	Z20	X21	Y21	Z21	X22	Y22	Z22	X23	Y23	Z23	X24	Y24	Z24	X25	Y25	Z25	X26	Y26	Z26	X27	Y27	Z27
249	4.15	-84.47415240965115	3919.5630164220543	-589.928040541129	261.6277819430906	3995.0714531363424	-524.0804886497483	618.2855162846223	4144.270449420817	-521.4394009827647	695.6829334991554	4091.7658109694726	-476.9213078559625	704.7244152266937	4116.73159165394	-554.3054103998045	655.7972739808554	4194.358753180131	-531.9045784308775	-109.81043342763097	3910.158200763107	-347.95531988593706	223.95365827890473	4036.812935636703	-359.2481020664978	576.892681442228	4194.047049098734	-382.7665967230106	674.8637627847462	4188.7391983132775	-351.87775504139364	643.5933225808506	4250.04544887214	-334.74070120294317	598.9961782892499	4230.625558199737	-408.5497653789988	-679.6776020668547	3733.900983296113	-476.97570820764537	-909.3533862075524	3549.0656686096363	-417.2917146598175	-752.4965070069674	3572.2063672435297	-391.33207486660416	-573.0289822264257	3647.7399174345546	-582.9914516653846	-322.7865569036417	3671.8269324177986	-664.6769345541419	-445.73037778537326	3437.0627373747734	-457.40606502110154	-553.2293093644344	3423.9775763070784	-420.0439035684949	-544.9193980395631	3404.51088478167	-397.54969741905	-523.0200077277283	3393.5716628398213	-394.70315924792146	-637.9643410378287	3867.5198297050047	-362.97697190032557	-416.7401069544446	3988.3749163453585	-314.03186463057324	-147.30889923073605	3994.3015813325	-232.66227236800535	-16.731959496942164	3990.5652493603793	-234.14545681625373	8.487512886952711	4009.8925944072494	-222.3854408812515	-7.475901298461392	4028.973054002711	-218.16744719390846
250	4.166666666666667	-84.54226739926074	3919.538720562026	-589.9099746201983	261.63320502884284	3994.9977109409315	-524.035061623172	624.5839106210892	4148.915419077763	-523.8199384182017	695.9048043808008	4092.108404168453	-477.1661552669286	704.902008244476	4117.223229316928	-554.6868729870474	655.8903827545726	4194.220579614048	-531.8983743030194	-115.06276797529975	3908.1407965250187	-348.5556103613971	223.96414162195813	4036.965243392091	-359.3409348689292	572.7875104513148	4172.473609110181	-368.7536925126263	675.2218809930641	4189.6121930307045	-352.12497540424755	644.10927479005	4250.928123807291	-334.9917265675735	604.9172895918344	4234.988567022878	-410.44590739154967	-679.7285141970391	3734.0707242119356	-477.0316214676895	-909.3827699973433	3548.904167141866	-417.3034800730293	-752.324621902212	3571.8743659452325	-391.2634799697851	-573.0483997826726	3647.909467145115	-582.9424916433403	-322.79580398821435	3672.3985362443677	-664.8251469559167	-445.71995095896506	3437.1592646687427	-457.36062821209464	-547.1662105846267	3425.244296004902	-419.0649373402877	-544.7431597030921	3404.173040670967	-397.08520501317736	-513.9086259163726	3397.6349538139893	-401.1756258172595	-637.9941265198754	3867.573492969701	-363.0539194827773	-412.2451689581809	3989.2305917266863	-313.90776218813625	-147.1991648342864	3994.497016125688	-232.76753540686096	-16.645196501318356	3990.546478232171	-234.1399782954634	8.504757186508584	3983.5666297673406	-217.9385102551958	-7.371357995725511	4029.094991866829	-218.2209737900459
251	4.183333333333334	-84.4686412261329	3919.579181729019	-589.7628650554259	266.7143374731998	3997.926640555659	-519.4591460523316	624.4866345534807	4147.424048456748	-523.5158912499135	701.7028248305936	4095.479838362856	-476.67561661249516	699.4537788129849	4085.4557034232575	-547.5251902308919	651.2503704395675	4161.885366177205	-524.8028592885055	-109.81442541349648	3911.9181978039946	-350.08201387943836	229.26990976746907	4037.125316996337	-358.95778913428	577.3461365095798	4194.140745112773	-382.8060372865396	680.1707225171914	4188.519178254032	-351.3069717591124	643.8402446960908	4250.354387462362	-334.92103186192156	599.4060347911684	4230.16315969955	-408.3364186642717	-679.561756578442	3734.2078734137494	-477.05256826106825	-909.3126000141657	3549.125784998225	-417.47681103262437	-754.7220604413395	3588.7177999567557	-404.07240061519354	-572.9982786649751	3648.1873243798454	-582.9304836424145	-322.786636866332	3671.9808292262396	-664.6980166542035	-441.0783124756324	3437.2315941377847	-457.0163546063416	-553.2633074674764	3423.7962379365363	-419.81905291345305	-546.1819566867646	3417.0929331528237	-408.154096448817	-522.6104466027089	3394.21428375335	-400.4120982754179	-637.8804323891554	3867.6582313664935	-363.0917893416213	-406.96950980681794	3995.4656627422287	-321.57849688256834	-146.11101391081635	3967.8141315391053	-228.65655996991507	-16.410982646493597	3990.580866907492	-234.5167572625079	13.190781936390868	3986.953408265881	-219.45011829036972	-7.616810002384595	4028.363392589326	-218.31933189605792
252	4.2	-84.57714890544604	3919.044182859306	-589.715791765362	260.815794667806	3993.728141853924	-517.4782330767425	624.2947278114605	4147.347462556368	-523.4039374368413	695.4554792810466	4091.6909982698353	-477.0928400444301	694.2692974575467	4085.819866498324	-548.0503427568075	651.1657092151564	4161.891002573749	-524.6966170671085	-115.08116797346806	3908.1826060487588	-348.6011422726846	223.94758829172375	4037.023992805561	-359.4146284890044	577.3853668318116	4194.438107488457	-382.9506480221719	680.1027815295694	4188.401035824581	-351.4144576026002	645.0768978956704	4251.526050795714	-341.0730779549958	605.2429831170467	4235.042023856123	-410.6275955451747	-679.6029051105002	3734.150012617581	-476.9767497612005	-909.3170503427052	3549.097041834293	-417.39037187216076	-750.086239608287	3589.96526279155	-404.08479096141804	-573.0629507325773	3648.1737066848523	-582.933893905264	-322.8186070137881	3672.295759237495	-664.7721169056155	-441.0960234568986	3437.193329051209	-456.9173100917879	-547.2235816261752	3425.3384187594183	-419.0891011008238	-544.8239174105295	3404.193173103136	-397.03678964065745	-519.3434714276334	3371.630040601027	-394.91213444659746	-642.0009850854527	3893.9608031540397	-368.1472250317082	-411.8851662946037	3991.7259112681245	-320.14767495505026	-146.16693535759913	3967.769848741312	-228.57717324441663	-17.384132111348006	3987.2866528891673	-227.81258823287018	8.41063579025196	3983.4065669848633	-217.89159521697192	-7.734030267497463	4028.4652504688515	-218.27013404540352
